<mxfile host="65bd71144e">
    <diagram id="WLx21tkq4bCm7ZmM3jrM" name="Page-1">
        <mxGraphModel dx="1144" dy="761" grid="1" gridSize="10" guides="1" tooltips="1" connect="1" arrows="1" fold="1" page="1" pageScale="1" pageWidth="850" pageHeight="1100" math="0" shadow="0">
            <root>
                <mxCell id="0"/>
                <mxCell id="1" parent="0"/>
                <mxCell id="iIY5kSgaHP8H11YztNga-21" value="" style="rounded=0;whiteSpace=wrap;html=1;" parent="1" vertex="1">
                    <mxGeometry y="680" width="1000" height="80" as="geometry"/>
                </mxCell>
                <mxCell id="5" value="" style="rounded=1;whiteSpace=wrap;html=1;" vertex="1" parent="1">
                    <mxGeometry x="200" y="690" width="475" height="60" as="geometry"/>
                </mxCell>
                <mxCell id="iIY5kSgaHP8H11YztNga-1" value="" style="rounded=0;whiteSpace=wrap;html=1;" parent="1" vertex="1">
                    <mxGeometry y="120" width="1000" height="80" as="geometry"/>
                </mxCell>
                <mxCell id="4" value="" style="rounded=1;whiteSpace=wrap;html=1;" vertex="1" parent="1">
                    <mxGeometry x="205" y="130" width="475" height="60" as="geometry"/>
                </mxCell>
                <mxCell id="iIY5kSgaHP8H11YztNga-10" value="" style="rounded=0;whiteSpace=wrap;html=1;" parent="1" vertex="1">
                    <mxGeometry y="400" width="1000" height="80" as="geometry"/>
                </mxCell>
                <mxCell id="3" value="" style="rounded=1;whiteSpace=wrap;html=1;" vertex="1" parent="1">
                    <mxGeometry x="200" y="410" width="475" height="60" as="geometry"/>
                </mxCell>
                <mxCell id="iIY5kSgaHP8H11YztNga-2" value="Guest User" style="text;html=1;strokeColor=none;fillColor=none;align=center;verticalAlign=middle;whiteSpace=wrap;rounded=0;" parent="1" vertex="1">
                    <mxGeometry x="220" y="80" width="570" height="30" as="geometry"/>
                </mxCell>
                <mxCell id="iIY5kSgaHP8H11YztNga-3" value="" style="rounded=0;whiteSpace=wrap;html=1;" parent="1" vertex="1">
                    <mxGeometry x="10" y="130" width="120" height="60" as="geometry"/>
                </mxCell>
                <mxCell id="iIY5kSgaHP8H11YztNga-4" value="Website Logo (Link to Hompage)" style="text;html=1;strokeColor=none;fillColor=none;align=center;verticalAlign=middle;whiteSpace=wrap;rounded=0;" parent="1" vertex="1">
                    <mxGeometry x="40" y="145" width="60" height="30" as="geometry"/>
                </mxCell>
                <mxCell id="iIY5kSgaHP8H11YztNga-6" value="" style="shape=image;html=1;verticalAlign=top;verticalLabelPosition=bottom;labelBackgroundColor=#ffffff;imageAspect=0;aspect=fixed;image=https://cdn0.iconfinder.com/data/icons/feather/96/magnifying-glass-128.png" parent="1" vertex="1">
                    <mxGeometry x="210" y="135" width="50" height="50" as="geometry"/>
                </mxCell>
                <mxCell id="iIY5kSgaHP8H11YztNga-7" value="Find awesome recipes" style="text;html=1;strokeColor=none;fillColor=none;align=left;verticalAlign=middle;whiteSpace=wrap;rounded=0;fontSize=20;fontColor=#B3B3B3;" parent="1" vertex="1">
                    <mxGeometry x="270" y="130" width="220" height="60" as="geometry"/>
                </mxCell>
                <mxCell id="iIY5kSgaHP8H11YztNga-8" value="&lt;font color=&quot;#000000&quot;&gt;Sign In&lt;/font&gt;" style="rounded=1;whiteSpace=wrap;html=1;fontSize=20;fontColor=#B3B3B3;align=center;" parent="1" vertex="1">
                    <mxGeometry x="860" y="140" width="100" height="40" as="geometry"/>
                </mxCell>
                <mxCell id="iIY5kSgaHP8H11YztNga-9" value="&lt;font color=&quot;#000000&quot;&gt;Sign Up&lt;/font&gt;" style="rounded=1;whiteSpace=wrap;html=1;fontSize=20;fontColor=#B3B3B3;align=center;" parent="1" vertex="1">
                    <mxGeometry x="730" y="140" width="100" height="40" as="geometry"/>
                </mxCell>
                <mxCell id="iIY5kSgaHP8H11YztNga-11" value="Logged In" style="text;html=1;strokeColor=none;fillColor=none;align=center;verticalAlign=middle;whiteSpace=wrap;rounded=0;" parent="1" vertex="1">
                    <mxGeometry x="220" y="360" width="570" height="30" as="geometry"/>
                </mxCell>
                <mxCell id="iIY5kSgaHP8H11YztNga-12" value="" style="rounded=0;whiteSpace=wrap;html=1;" parent="1" vertex="1">
                    <mxGeometry x="10" y="410" width="120" height="60" as="geometry"/>
                </mxCell>
                <mxCell id="iIY5kSgaHP8H11YztNga-13" value="Website Logo (Link to Hompage)" style="text;html=1;strokeColor=none;fillColor=none;align=center;verticalAlign=middle;whiteSpace=wrap;rounded=0;" parent="1" vertex="1">
                    <mxGeometry x="40" y="425" width="60" height="30" as="geometry"/>
                </mxCell>
                <mxCell id="iIY5kSgaHP8H11YztNga-15" value="" style="shape=image;html=1;verticalAlign=top;verticalLabelPosition=bottom;labelBackgroundColor=#ffffff;imageAspect=0;aspect=fixed;image=https://cdn0.iconfinder.com/data/icons/feather/96/magnifying-glass-128.png" parent="1" vertex="1">
                    <mxGeometry x="210" y="415" width="50" height="50" as="geometry"/>
                </mxCell>
                <mxCell id="iIY5kSgaHP8H11YztNga-16" value="Find awesome recipes" style="text;html=1;strokeColor=none;fillColor=none;align=left;verticalAlign=middle;whiteSpace=wrap;rounded=0;fontSize=20;fontColor=#B3B3B3;" parent="1" vertex="1">
                    <mxGeometry x="270" y="410" width="220" height="60" as="geometry"/>
                </mxCell>
                <mxCell id="iIY5kSgaHP8H11YztNga-19" value="" style="shape=image;html=1;verticalAlign=top;verticalLabelPosition=bottom;labelBackgroundColor=#ffffff;imageAspect=0;aspect=fixed;image=https://cdn4.iconfinder.com/data/icons/wirecons-free-vector-icons/32/menu-alt-128.png;fontSize=20;fontColor=#000000;" parent="1" vertex="1">
                    <mxGeometry x="920" y="412" width="58" height="58" as="geometry"/>
                </mxCell>
                <mxCell id="iIY5kSgaHP8H11YztNga-22" value="Logged In (Expanded)" style="text;html=1;strokeColor=none;fillColor=none;align=center;verticalAlign=middle;whiteSpace=wrap;rounded=0;" parent="1" vertex="1">
                    <mxGeometry x="220" y="640" width="570" height="30" as="geometry"/>
                </mxCell>
                <mxCell id="iIY5kSgaHP8H11YztNga-23" value="" style="rounded=0;whiteSpace=wrap;html=1;" parent="1" vertex="1">
                    <mxGeometry x="10" y="690" width="120" height="60" as="geometry"/>
                </mxCell>
                <mxCell id="iIY5kSgaHP8H11YztNga-24" value="Website Logo (Link to Hompage)" style="text;html=1;strokeColor=none;fillColor=none;align=center;verticalAlign=middle;whiteSpace=wrap;rounded=0;" parent="1" vertex="1">
                    <mxGeometry x="40" y="705" width="60" height="30" as="geometry"/>
                </mxCell>
                <mxCell id="iIY5kSgaHP8H11YztNga-26" value="" style="shape=image;html=1;verticalAlign=top;verticalLabelPosition=bottom;labelBackgroundColor=#ffffff;imageAspect=0;aspect=fixed;image=https://cdn0.iconfinder.com/data/icons/feather/96/magnifying-glass-128.png" parent="1" vertex="1">
                    <mxGeometry x="210" y="695" width="50" height="50" as="geometry"/>
                </mxCell>
                <mxCell id="iIY5kSgaHP8H11YztNga-27" value="Find awesome recipes" style="text;html=1;strokeColor=none;fillColor=none;align=left;verticalAlign=middle;whiteSpace=wrap;rounded=0;fontSize=20;fontColor=#B3B3B3;" parent="1" vertex="1">
                    <mxGeometry x="270" y="690" width="220" height="60" as="geometry"/>
                </mxCell>
                <mxCell id="iIY5kSgaHP8H11YztNga-29" value="My Account" style="rounded=0;whiteSpace=wrap;html=1;fontSize=20;fontColor=#000000;align=center;" parent="1" vertex="1">
                    <mxGeometry x="760" y="680" width="240" height="80" as="geometry"/>
                </mxCell>
                <mxCell id="iIY5kSgaHP8H11YztNga-30" value="My Cookbook" style="rounded=0;whiteSpace=wrap;html=1;fontSize=20;fontColor=#000000;align=center;" parent="1" vertex="1">
                    <mxGeometry x="760" y="760" width="240" height="80" as="geometry"/>
                </mxCell>
                <mxCell id="iIY5kSgaHP8H11YztNga-31" value="Add New Recipes" style="rounded=0;whiteSpace=wrap;html=1;fontSize=20;fontColor=#000000;align=center;" parent="1" vertex="1">
                    <mxGeometry x="760" y="920" width="240" height="80" as="geometry"/>
                </mxCell>
                <mxCell id="2" value="Explore Recipes" style="rounded=0;whiteSpace=wrap;html=1;fontSize=20;fontColor=#000000;align=center;" vertex="1" parent="1">
                    <mxGeometry x="760" y="840" width="240" height="80" as="geometry"/>
                </mxCell>
                <mxCell id="6" value="Welcome, User!" style="text;html=1;strokeColor=none;fillColor=none;align=center;verticalAlign=middle;whiteSpace=wrap;rounded=0;fontSize=19;" vertex="1" parent="1">
                    <mxGeometry x="740" y="410" width="160" height="60" as="geometry"/>
                </mxCell>
            </root>
        </mxGraphModel>
    </diagram>
</mxfile>